# xmcd
#
# Track frame offsets: 
#        150
#        16272
#        37970
#        68452
#        89607
#        110500
#
# Disc length: 2426 seconds
#
# Revision: 1
# Processed by: cddbd v1.5.2PL0 Copyright (c) Steve Scherf et al.
# Submitted via: ExactAudioCopy v0.90b4
#
DISCID=40097806
DTITLE=Aunt Mary - Live Reunion
DYEAR=1980
DGENRE=Progressive Rock
TTITLE0=Playthings Of The Wind
TTITLE1=Joinin' The Crowd
TTITLE2=All We`ve Got To Do Is Dream
TTITLE3=Wild Turkey
TTITLE4=I've Got News For You
TTITLE5=G Flat Road
EXTD=
EXTT0=
EXTT1=
EXTT2=
EXTT3=
EXTT4=
EXTT5=
PLAYORDER=
